<?xml version="1.0" encoding="UTF-8" standalone="no"?> <svg width="48" height="48" viewBox="0 0 48 48" fill="none" xmlns="http://www.w3.org/2000/svg">
<path d="M43.977 39.023L32.5 27.548C34.1312 24.9953 34.9986 22.0294 35 19C35.003 18.4833 34.9776 17.9669 34.924 17.453C34.9127 17.3202 34.8751 17.1911 34.8132 17.0731C34.7513 16.9551 34.6665 16.8506 34.5637 16.7659C34.4609 16.6811 34.3422 16.6178 34.2146 16.5795C34.087 16.5413 33.953 16.5289 33.8205 16.5432C33.6881 16.5574 33.5598 16.598 33.4432 16.6626C33.3267 16.7271 33.2242 16.8143 33.1418 16.9189C33.0594 17.0236 32.9987 17.1437 32.9634 17.2722C32.928 17.4007 32.9187 17.5349 32.936 17.667C32.9811 18.1099 33.0024 18.5548 33 19C33.0034 21.9362 32.0823 24.799 30.3675 27.1825C28.6526 29.5659 26.231 31.3491 23.4459 32.2791C20.6609 33.2091 17.6537 33.2388 14.8508 32.3639C12.0479 31.4891 9.59157 29.7541 7.83 27.405L15.5 19.744L20.793 25.037C20.9805 25.2245 21.2348 25.3298 21.5 25.3298C21.7652 25.3298 22.0195 25.2245 22.207 25.037L34.807 12.437L35.598 13.231C35.797 13.431 36.0484 13.5707 36.3233 13.6343C36.5981 13.6978 36.8854 13.6826 37.1519 13.5903C37.4185 13.498 37.6537 13.3323 37.8304 13.1124C38.0071 12.8925 38.1182 12.6272 38.151 12.347L38.918 5.747C38.9447 5.52227 38.9201 5.29442 38.8462 5.08052C38.7723 4.86662 38.651 4.67221 38.4913 4.51186C38.3317 4.3515 38.1378 4.22935 37.9242 4.15456C37.7106 4.07977 37.4828 4.05428 37.258 4.08L30.658 4.847C30.3775 4.87911 30.1117 4.98976 29.8912 5.16622C29.6708 5.34268 29.5046 5.57778 29.4118 5.84448C29.3191 6.11119 29.3035 6.39866 29.3668 6.67384C29.4302 6.94901 29.5699 7.20072 29.77 7.4L30.564 8.191L21.5 17.256L16.207 11.963C16.0161 11.7821 15.763 11.6813 15.5 11.6813C15.237 11.6813 14.9839 11.7821 14.793 11.963L5.24 21.526C4.86043 19.5069 4.93156 17.4289 5.44831 15.4404C5.96505 13.452 6.91465 11.6023 8.22923 10.0234C9.54382 8.4446 11.1909 7.17564 13.0529 6.30724C14.9148 5.43885 16.9455 4.99247 19 5C21.1893 4.9932 23.3487 5.50735 25.3 6.5C25.4178 6.5674 25.5481 6.61012 25.6829 6.62555C25.8178 6.64098 25.9543 6.6288 26.0843 6.58975C26.2143 6.55071 26.335 6.48561 26.439 6.39843C26.543 6.31125 26.6282 6.20381 26.6893 6.08265C26.7505 5.96149 26.7864 5.82915 26.7947 5.69368C26.8031 5.55822 26.7838 5.42248 26.738 5.29471C26.6922 5.16695 26.6209 5.04984 26.5284 4.95052C26.4359 4.8512 26.3242 4.77174 26.2 4.717C23.9701 3.58173 21.5022 2.9932 19 3C16.5151 2.99368 14.0628 3.56624 11.8376 4.6723C9.61238 5.77837 7.67538 7.38753 6.18012 9.37225C4.68485 11.357 3.67242 13.6627 3.22307 16.1067C2.77372 18.5507 2.8998 21.0657 3.59132 23.4525C4.28284 25.8393 5.52079 28.0322 7.20705 29.8574C8.89332 31.6826 10.9815 33.09 13.3062 33.968C15.6309 34.846 18.1281 35.1704 20.6 34.9156C23.0718 34.6608 25.4503 33.8337 27.547 32.5L39.026 43.98C39.6833 44.6365 40.5746 45.0051 41.5036 45.0045C42.4327 45.0039 43.3235 44.6343 43.98 43.977C44.6365 43.3197 45.0051 42.4284 45.0045 41.4994C45.0039 40.5703 44.6343 39.6795 43.977 39.023V39.023ZM15.5 14.084L20.793 19.377C20.9805 19.5645 21.2348 19.6698 21.5 19.6698C21.7652 19.6698 22.0195 19.5645 22.207 19.377L32.687 8.9C32.7801 8.80711 32.854 8.69675 32.9044 8.57526C32.9548 8.45377 32.9808 8.32353 32.9808 8.192C32.9808 8.06046 32.9548 7.93022 32.9044 7.80873C32.854 7.68724 32.7801 7.57689 32.687 7.484L31.916 6.717L36.861 6.142L36.287 11.089L35.52 10.317C35.332 10.1295 35.0775 10.0238 34.812 10.023C34.5468 10.0231 34.2925 10.1284 34.105 10.316L21.505 22.916L16.212 17.623C16.0245 17.4355 15.7702 17.3302 15.505 17.3302C15.2398 17.3302 14.9855 17.4355 14.798 17.623L6.71 25.7C6.37267 25.073 6.08383 24.4211 5.846 23.75L15.5 14.084ZM42.565 42.56C42.2811 42.839 41.899 42.9953 41.501 42.9953C41.103 42.9953 40.7209 42.839 40.437 42.56L29.2 31.321C29.9711 30.6815 30.6808 29.9714 31.32 29.2L42.559 40.434C42.8387 40.7168 42.996 41.0981 42.9971 41.4958C42.9982 41.8935 42.8431 42.2757 42.565 42.56V42.56Z" fill="black"/>
</svg>
